:SAMPLES-PER-SECOND 30
:FULLY-SPECIFIED
:DEGREES
166
root  23.9364 38.9592 -0.965098 12.7783 74.5337 16.6585
RightUpLeg  -26.8517 -10.11 -7.68548
RightLeg  49.4884 -4.04605 -5.32329
RightFoot  0.461302 -0.171194 1.67745
RightToes  0.000482159 0.542163 -0.142577
Spine  27.1885 -1.05206 0.254859
Spine1  10.8386 0.320327 -4.78616
HEad  0.639588 2.26361 -6.00209
LeftShoulder1  9.53066 -14.747 -45.5279
LeftArm  -16.2138 5.60844 -21.892
LeftForeArm  16.1742 -70.0677 -31.9727
LeftHand  -0.25398 0.0180481 5.50724
RightShoulder  5.41755 10.0143 34.1266
RightArm  -10.9876 -5.68475 26.7393
RightForeArm  -7.20464 75.5764 58.7462
RightHand  -0.082943 -5.05188 -22.3623
LeftUpLeg  -12.941 12.3231 -8.97696
LeftLeg  22.3565 5.24809 2.70585
LeftFoot  -7.34132 -0.124911 4.80582
LeftToes  1.06245e-005 4.65856e-005 -8.18503e-006
167
root  25.2467 39.0652 -0.337003 15.2515 76.1178 18.6281
RightUpLeg  -27.1675 -11.1825 -7.48772
RightLeg  33.2453 -6.06767 -4.78525
RightFoot  0.586791 -0.170657 1.66447
RightToes  0.000482159 0.542163 -0.142577
Spine  28.8209 -1.69684 0.837029
Spine1  10.453 -0.39425 -4.24753
HEad  0.169002 1.86016 -6.28309
LeftShoulder1  9.50567 -14.8053 -45.2525
LeftArm  -15.7611 3.70838 -22.6455
LeftForeArm  12.9036 -67.8861 -28.1907
LeftHand  -0.25398 0.0180481 5.50724
RightShoulder  5.36982 10.0416 33.697
RightArm  -10.6979 -3.48957 26.0473
RightForeArm  -12.8992 74.4322 52.0928
RightHand  -0.0672743 -5.12917 -21.4957
LeftUpLeg  -11.0067 10.1399 -8.37441
LeftLeg  22.5024 5.24359 2.71882
LeftFoot  -9.38367 -0.00654846 3.71128
LeftToes  1.06245e-005 4.65856e-005 -8.18503e-006
168
root  26.6054 39.0009 0.404149 22.5002 78.3966 24.903
RightUpLeg  -26.2201 -13.0857 -8.12161
RightLeg  15.5135 -5.4934 -1.24615
RightFoot  -0.562372 -0.390448 4.17909
RightToes  0.000482159 0.542163 -0.142577
Spine  29.8698 -2.3935 0.670187
Spine1  9.8113 -1.52135 -3.11968
HEad  0.106211 1.29635 -6.28689
LeftShoulder1  9.39101 -14.696 -44.9642
LeftArm  -14.7804 1.45967 -23.2462
LeftForeArm  9.48529 -65.0462 -24.3974
LeftHand  -0.25398 0.0180481 5.50724
RightShoulder  5.25655 9.96862 33.074
RightArm  -10.2858 -1.6244 25.8832
RightForeArm  -17.9433 72.9469 45.7745
RightHand  0.0725808 -5.93528 -20.2828
LeftUpLeg  -10.2949 7.6648 -8.20055
LeftLeg  23.952 4.80366 2.67183
LeftFoot  -11.3564 0.0709953 3.13952
LeftToes  1.06245e-005 4.65856e-005 -8.18503e-006
169
root  28.0124 38.635 1.25905 37.9933 80.9203 39.8224
RightUpLeg  -24.3609 -11.1953 -11.7474
RightLeg  2.23649 -6.98122 2.10739
RightFoot  -2.91807 -0.549246 7.12184
RightToes  0.000482159 0.542163 -0.142577
Spine  31.0009 -3.1101 0.0945844
Spine1  9.24769 -2.71252 -2.09197
HEad  0.0225542 0.018299 -6.08597
LeftShoulder1  9.42195 -14.8105 -44.8244
LeftArm  -13.3684 -1.47064 -23.5565
LeftForeArm  5.78647 -61.2692 -20.6027
LeftHand  -0.25398 0.0180481 5.50724
RightShoulder  5.04919 9.76611 32.1054
RightArm  -10.2017 -0.343559 26.4112
RightForeArm  -22.1463 71.0027 39.6375
RightHand  0.201464 -6.82233 -18.4602
LeftUpLeg  -10.3452 4.38621 -8.41929
LeftLeg  27.835 4.92632 3.17083
LeftFoot  -14.6804 0.175869 3.03268
LeftToes  1.06245e-005 4.65856e-005 -8.18503e-006
170
root  29.343 38.0552 2.11827 60.4952 82.5998 62.3345
RightUpLeg  -24.7157 -12.3445 -13.1353
RightLeg  -0.469817 -5.8642 2.17584
RightFoot  -3.09028 -0.575885 7.68362
RightToes  0.000482159 0.542163 -0.142577
Spine  32.7055 -3.72633 0.675341
Spine1  9.08793 -3.4754 -1.40363
HEad  -0.287719 -2.17014 -5.71106
LeftShoulder1  9.58326 -15.2283 -44.5631
LeftArm  -11.368 -5.15796 -23.8842
LeftForeArm  2.34228 -56.8087 -17.2448
LeftHand  -0.25398 0.0180481 5.50724
RightShoulder  4.78701 9.48516 30.9036
RightArm  -10.5092 0.215736 27.0481
RightForeArm  -24.9584 68.9813 34.8101
RightHand  0.214762 -7.09872 -16.5676
LeftUpLeg  -10.4977 1.09179 -8.40527
LeftLeg  32.9921 5.00067 3.83305
LeftFoot  -18.974 0.215433 1.65983
LeftToes  1.06245e-005 4.65856e-005 -8.18503e-006
171
root  30.5351 37.3158 2.94183 83.2415 83.1343 85.2445
RightUpLeg  -27.7388 -14.0613 -13.5146
RightLeg  6.58435 -5.88333 1.57057
RightFoot  2.11411 -0.802435 6.90279
RightToes  0.000482159 0.542163 -0.142577
Spine  34.9062 -4.42251 2.8525
Spine1  9.13745 -3.50604 -1.81642
HEad  -1.14957 -4.93307 -4.97981
LeftShoulder1  9.79711 -15.8283 -44.1199
LeftArm  -8.74427 -9.76155 -24.3345
LeftForeArm  -0.405522 -52.2799 -14.6269
LeftHand  -0.25398 0.0180481 5.50724
RightShoulder  4.61131 9.32344 29.9871
RightArm  -11.1806 0.736496 27.0723
RightForeArm  -27.5032 67.0968 31.3089
RightHand  0.181066 -7.01163 -15.2234
LeftUpLeg  -12.1129 -0.0606406 -7.72342
LeftLeg  40.6283 4.43203 4.44698
LeftFoot  -21.6819 0.0364604 -1.1484
LeftToes  1.06245e-005 4.65856e-005 -8.18503e-006
172
root  31.5909 36.5774 3.73049 99.363 83.5711 101.254
RightUpLeg  -31.9096 -19.1217 -10.7454
RightLeg  14.7439 -1.85985 1.69647
RightFoot  11.3294 -1.06768 5.77612
RightToes  0.000482159 0.542163 -0.142577
Spine  37.6276 -5.40742 6.07634
Spine1  9.54186 -2.86221 -3.47678
HEad  -3.37629 -7.5142 -3.99579
LeftShoulder1  10.1368 -16.648 -43.7699
LeftArm  -6.66826 -15.4494 -24.7897
LeftForeArm  -2.40125 -48.006 -12.6358
LeftHand  -0.25398 0.0180481 5.50724
RightShoulder  4.55837 9.42677 29.2758
RightArm  -12.2252 3.14507 26.5457
RightForeArm  -31.4725 64.2713 27.2748
RightHand  0.156081 -6.97166 -13.9505
LeftUpLeg  -16.4211 1.99254 -6.024
LeftLeg  51.4062 4.39115 6.44661
LeftFoot  -19.3076 -0.0559952 -2.37366
LeftToes  1.06245e-005 4.65856e-005 -8.18503e-006
173
root  32.412 36.0222 4.4356 111.319 85.2553 112.694
RightUpLeg  -37.2516 -25.5573 -3.71114
RightLeg  21.8204 5.42252 2.08179
RightFoot  16.1581 -0.479263 2.35897
RightToes  0.000482159 0.542163 -0.142577
Spine  41.1093 -6.50395 9.63299
Spine1  10.3861 -2.02904 -4.61391
HEad  -7.40898 -8.97515 -3.28124
LeftShoulder1  10.5016 -17.6338 -43.1944
LeftArm  -6.95535 -21.843 -25.4771
LeftForeArm  -3.74318 -43.7487 -10.9585
LeftHand  -0.25398 0.0180481 5.50724
RightShoulder  4.49697 9.78071 27.841
RightArm  -13.3187 9.06729 26.0802
RightForeArm  -36.2294 58.9489 21.772
RightHand  0.0787842 -6.47542 -11.8638
LeftUpLeg  -23.1895 5.98443 -3.35213
LeftLeg  62.853 4.58795 10.2647
LeftFoot  -12.3038 0.054078 -0.0629998
LeftToes  1.06245e-005 4.65856e-005 -8.18503e-006
174
root  33.0008 35.7624 5.07976 126.368 87.3728 126.474
RightUpLeg  -40.9974 -24.3649 0.226752
RightLeg  27.2577 4.71786 2.36415
RightFoot  14.6415 0.731813 -2.77707
RightToes  0.000482159 0.542163 -0.142577
Spine  45.2062 -7.18398 11.8414
Spine1  10.9818 -1.63531 -3.97059
HEad  -12.4013 -8.89025 -3.12294
LeftShoulder1  10.534 -18.473 -41.5557
LeftArm  -9.87054 -28.2501 -26.4733
LeftForeArm  -4.97391 -39.0062 -9.36927
LeftHand  -0.25398 0.0180481 5.50724
RightShoulder  4.40102 10.401 25.559
RightArm  -14.1082 17.833 25.6905
RightForeArm  -39.5478 51.3277 16.4361
RightHand  -0.0709284 -4.82499 -9.35534
LeftUpLeg  -31.016 10.0576 -1.48976
LeftLeg  70.5004 3.68986 12.2437
LeftFoot  -6.66716 -0.0923195 3.56217
LeftToes  1.06245e-005 4.65856e-005 -8.18503e-006
175
root  33.5573 35.8187 5.7487 140.289 87.7066 137.892
RightUpLeg  -43.7101 -22.4318 2.14801
RightLeg  29.4365 2.61356 1.36285
RightFoot  11.9309 1.24003 -5.578
RightToes  0.000482159 0.542163 -0.142577
Spine  49.0557 -7.23358 11.4572
Spine1  10.9858 -1.88806 -2.6074
HEad  -17.1513 -8.10567 -3.27308
LeftShoulder1  10.2947 -19.1516 -39.1927
LeftArm  -13.6011 -34.7509 -26.6944
LeftForeArm  -7.14386 -33.4153 -7.81895
LeftHand  -0.25398 0.0180481 5.50724
RightShoulder  4.35009 11.1972 23.388
RightArm  -15.3225 27.1358 24.7441
RightForeArm  -41.1902 43.5471 12.7282
RightHand  -0.199556 -2.63118 -7.6805
LeftUpLeg  -38.6429 13.0796 -2.88829
LeftLeg  71.8982 2.81567 10.632
LeftFoot  -5.92333 -0.197949 4.96109
LeftToes  1.06245e-005 4.65856e-005 -8.18503e-006
